<mxfile host="app.diagrams.net" modified="2023-12-08T21:14:08.392Z" agent="Mozilla/5.0 (Windows NT 10.0; Win64; x64) AppleWebKit/537.36 (KHTML, like Gecko) Chrome/119.0.0.0 Safari/537.36 Edg/119.0.0.0" etag="JG_yRVmOObH31embhUqh" version="22.1.7" type="github">
  <diagram name="Page-1" id="tKc6cw4MWqgZvxHKAoWy">
    <mxGraphModel dx="1156" dy="792" grid="1" gridSize="10" guides="1" tooltips="1" connect="1" arrows="1" fold="1" page="1" pageScale="1" pageWidth="850" pageHeight="1100" math="0" shadow="0">
      <root>
        <mxCell id="0" />
        <mxCell id="1" parent="0" />
        <mxCell id="l99NdjzM9fjPco1lU6zZ-49" style="edgeStyle=orthogonalEdgeStyle;rounded=0;orthogonalLoop=1;jettySize=auto;html=1;exitX=0;exitY=0.7;exitDx=0;exitDy=0;exitPerimeter=0;endArrow=none;endFill=0;" edge="1" parent="1" source="l99NdjzM9fjPco1lU6zZ-7">
          <mxGeometry relative="1" as="geometry">
            <mxPoint x="30" y="310" as="targetPoint" />
          </mxGeometry>
        </mxCell>
        <mxCell id="l99NdjzM9fjPco1lU6zZ-7" value="" style="verticalLabelPosition=bottom;shadow=0;dashed=0;align=center;html=1;verticalAlign=top;shape=mxgraph.electrical.logic_gates.d_type_rs_flip-flop;" vertex="1" parent="1">
          <mxGeometry x="50" y="150" width="100" height="100" as="geometry" />
        </mxCell>
        <mxCell id="l99NdjzM9fjPco1lU6zZ-22" style="rounded=0;orthogonalLoop=1;jettySize=auto;html=1;exitX=0.5;exitY=1;exitDx=0;exitDy=0;exitPerimeter=0;endArrow=oval;endFill=1;" edge="1" parent="1" source="l99NdjzM9fjPco1lU6zZ-8">
          <mxGeometry relative="1" as="geometry">
            <mxPoint x="240.20689655172418" y="270" as="targetPoint" />
          </mxGeometry>
        </mxCell>
        <mxCell id="l99NdjzM9fjPco1lU6zZ-8" value="" style="verticalLabelPosition=bottom;shadow=0;dashed=0;align=center;html=1;verticalAlign=top;shape=mxgraph.electrical.logic_gates.d_type_rs_flip-flop;" vertex="1" parent="1">
          <mxGeometry x="190" y="150" width="100" height="100" as="geometry" />
        </mxCell>
        <mxCell id="l99NdjzM9fjPco1lU6zZ-21" style="rounded=0;orthogonalLoop=1;jettySize=auto;html=1;exitX=0.5;exitY=1;exitDx=0;exitDy=0;exitPerimeter=0;endArrow=oval;endFill=1;" edge="1" parent="1" source="l99NdjzM9fjPco1lU6zZ-9">
          <mxGeometry relative="1" as="geometry">
            <mxPoint x="380.2068965517242" y="270" as="targetPoint" />
          </mxGeometry>
        </mxCell>
        <mxCell id="l99NdjzM9fjPco1lU6zZ-9" value="" style="verticalLabelPosition=bottom;shadow=0;dashed=0;align=center;html=1;verticalAlign=top;shape=mxgraph.electrical.logic_gates.d_type_rs_flip-flop;" vertex="1" parent="1">
          <mxGeometry x="330" y="150" width="100" height="100" as="geometry" />
        </mxCell>
        <mxCell id="l99NdjzM9fjPco1lU6zZ-20" style="rounded=0;orthogonalLoop=1;jettySize=auto;html=1;exitX=0.5;exitY=1;exitDx=0;exitDy=0;exitPerimeter=0;endArrow=oval;endFill=1;" edge="1" parent="1" source="l99NdjzM9fjPco1lU6zZ-10">
          <mxGeometry relative="1" as="geometry">
            <mxPoint x="509.8620689655172" y="270" as="targetPoint" />
          </mxGeometry>
        </mxCell>
        <mxCell id="l99NdjzM9fjPco1lU6zZ-10" value="" style="verticalLabelPosition=bottom;shadow=0;dashed=0;align=center;html=1;verticalAlign=top;shape=mxgraph.electrical.logic_gates.d_type_rs_flip-flop;" vertex="1" parent="1">
          <mxGeometry x="460" y="150" width="100" height="100" as="geometry" />
        </mxCell>
        <mxCell id="l99NdjzM9fjPco1lU6zZ-30" style="rounded=0;orthogonalLoop=1;jettySize=auto;html=1;exitX=1;exitY=0.3;exitDx=0;exitDy=0;exitPerimeter=0;endArrow=circle;endFill=0;" edge="1" parent="1" source="l99NdjzM9fjPco1lU6zZ-11">
          <mxGeometry relative="1" as="geometry">
            <mxPoint x="830" y="179.72413793103453" as="targetPoint" />
          </mxGeometry>
        </mxCell>
        <mxCell id="l99NdjzM9fjPco1lU6zZ-48" style="edgeStyle=orthogonalEdgeStyle;rounded=0;orthogonalLoop=1;jettySize=auto;html=1;exitX=0;exitY=0.7;exitDx=0;exitDy=0;exitPerimeter=0;endArrow=none;endFill=0;startArrow=classic;startFill=1;" edge="1" parent="1" source="l99NdjzM9fjPco1lU6zZ-11">
          <mxGeometry relative="1" as="geometry">
            <mxPoint x="690" y="310" as="targetPoint" />
          </mxGeometry>
        </mxCell>
        <mxCell id="l99NdjzM9fjPco1lU6zZ-11" value="" style="verticalLabelPosition=bottom;shadow=0;dashed=0;align=center;html=1;verticalAlign=top;shape=mxgraph.electrical.logic_gates.d_type_rs_flip-flop;" vertex="1" parent="1">
          <mxGeometry x="710" y="150" width="100" height="100" as="geometry" />
        </mxCell>
        <mxCell id="l99NdjzM9fjPco1lU6zZ-19" style="edgeStyle=orthogonalEdgeStyle;rounded=0;orthogonalLoop=1;jettySize=auto;html=1;exitX=0.5;exitY=1;exitDx=0;exitDy=0;exitPerimeter=0;entryX=0.5;entryY=1;entryDx=0;entryDy=0;entryPerimeter=0;endArrow=classic;endFill=1;" edge="1" parent="1" source="l99NdjzM9fjPco1lU6zZ-7" target="l99NdjzM9fjPco1lU6zZ-11">
          <mxGeometry relative="1" as="geometry" />
        </mxCell>
        <mxCell id="l99NdjzM9fjPco1lU6zZ-26" style="edgeStyle=orthogonalEdgeStyle;rounded=0;orthogonalLoop=1;jettySize=auto;html=1;exitX=1;exitY=0.7;exitDx=0;exitDy=0;exitPerimeter=0;entryX=0;entryY=0.3;entryDx=0;entryDy=0;entryPerimeter=0;endArrow=none;endFill=0;" edge="1" parent="1" source="l99NdjzM9fjPco1lU6zZ-7" target="l99NdjzM9fjPco1lU6zZ-8">
          <mxGeometry relative="1" as="geometry" />
        </mxCell>
        <mxCell id="l99NdjzM9fjPco1lU6zZ-27" style="rounded=0;orthogonalLoop=1;jettySize=auto;html=1;exitX=1;exitY=0.3;exitDx=0;exitDy=0;exitPerimeter=0;entryX=0;entryY=0.3;entryDx=0;entryDy=0;entryPerimeter=0;endArrow=none;endFill=0;" edge="1" parent="1" source="l99NdjzM9fjPco1lU6zZ-8" target="l99NdjzM9fjPco1lU6zZ-9">
          <mxGeometry relative="1" as="geometry" />
        </mxCell>
        <mxCell id="l99NdjzM9fjPco1lU6zZ-28" style="edgeStyle=orthogonalEdgeStyle;rounded=0;orthogonalLoop=1;jettySize=auto;html=1;exitX=1;exitY=0.7;exitDx=0;exitDy=0;exitPerimeter=0;entryX=0;entryY=0.3;entryDx=0;entryDy=0;entryPerimeter=0;endArrow=none;endFill=0;" edge="1" parent="1" source="l99NdjzM9fjPco1lU6zZ-9" target="l99NdjzM9fjPco1lU6zZ-10">
          <mxGeometry relative="1" as="geometry" />
        </mxCell>
        <mxCell id="l99NdjzM9fjPco1lU6zZ-32" value="X" style="text;html=1;align=center;verticalAlign=middle;resizable=0;points=[];autosize=1;strokeColor=none;fillColor=none;" vertex="1" parent="1">
          <mxGeometry x="10" y="160" width="30" height="30" as="geometry" />
        </mxCell>
        <mxCell id="l99NdjzM9fjPco1lU6zZ-33" style="rounded=0;orthogonalLoop=1;jettySize=auto;html=1;entryX=0.088;entryY=0.318;entryDx=0;entryDy=0;entryPerimeter=0;endArrow=none;endFill=0;" edge="1" parent="1" target="l99NdjzM9fjPco1lU6zZ-7">
          <mxGeometry relative="1" as="geometry">
            <mxPoint x="30" y="182" as="sourcePoint" />
          </mxGeometry>
        </mxCell>
        <mxCell id="l99NdjzM9fjPco1lU6zZ-34" value="y = 1" style="text;html=1;align=center;verticalAlign=middle;resizable=0;points=[];autosize=1;strokeColor=none;fillColor=none;" vertex="1" parent="1">
          <mxGeometry x="790" y="150" width="50" height="30" as="geometry" />
        </mxCell>
        <mxCell id="l99NdjzM9fjPco1lU6zZ-35" value="1" style="text;html=1;align=center;verticalAlign=middle;resizable=0;points=[];autosize=1;strokeColor=none;fillColor=none;" vertex="1" parent="1">
          <mxGeometry x="50" y="160" width="30" height="30" as="geometry" />
        </mxCell>
        <mxCell id="l99NdjzM9fjPco1lU6zZ-36" value="0" style="text;html=1;align=center;verticalAlign=middle;resizable=0;points=[];autosize=1;strokeColor=none;fillColor=none;" vertex="1" parent="1">
          <mxGeometry x="180" y="160" width="30" height="30" as="geometry" />
        </mxCell>
        <mxCell id="l99NdjzM9fjPco1lU6zZ-37" value="1" style="text;html=1;align=center;verticalAlign=middle;resizable=0;points=[];autosize=1;strokeColor=none;fillColor=none;" vertex="1" parent="1">
          <mxGeometry x="320" y="160" width="30" height="30" as="geometry" />
        </mxCell>
        <mxCell id="l99NdjzM9fjPco1lU6zZ-38" value="0" style="text;html=1;align=center;verticalAlign=middle;resizable=0;points=[];autosize=1;strokeColor=none;fillColor=none;" vertex="1" parent="1">
          <mxGeometry x="450" y="160" width="30" height="30" as="geometry" />
        </mxCell>
        <mxCell id="l99NdjzM9fjPco1lU6zZ-39" value="1" style="text;html=1;align=center;verticalAlign=middle;resizable=0;points=[];autosize=1;strokeColor=none;fillColor=none;" vertex="1" parent="1">
          <mxGeometry x="700" y="160" width="30" height="30" as="geometry" />
        </mxCell>
        <mxCell id="l99NdjzM9fjPco1lU6zZ-63" style="rounded=0;orthogonalLoop=1;jettySize=auto;html=1;exitX=0.5;exitY=1;exitDx=0;exitDy=0;exitPerimeter=0;endArrow=oval;endFill=1;" edge="1" parent="1" source="l99NdjzM9fjPco1lU6zZ-40">
          <mxGeometry relative="1" as="geometry">
            <mxPoint x="630.2068965517242" y="270" as="targetPoint" />
          </mxGeometry>
        </mxCell>
        <mxCell id="l99NdjzM9fjPco1lU6zZ-40" value="" style="verticalLabelPosition=bottom;shadow=0;dashed=0;align=center;html=1;verticalAlign=top;shape=mxgraph.electrical.logic_gates.d_type_rs_flip-flop;" vertex="1" parent="1">
          <mxGeometry x="580" y="150" width="100" height="100" as="geometry" />
        </mxCell>
        <mxCell id="l99NdjzM9fjPco1lU6zZ-41" style="rounded=0;orthogonalLoop=1;jettySize=auto;html=1;exitX=1;exitY=0.3;exitDx=0;exitDy=0;exitPerimeter=0;entryX=0;entryY=0.3;entryDx=0;entryDy=0;entryPerimeter=0;endArrow=none;endFill=0;" edge="1" parent="1" source="l99NdjzM9fjPco1lU6zZ-10" target="l99NdjzM9fjPco1lU6zZ-40">
          <mxGeometry relative="1" as="geometry" />
        </mxCell>
        <mxCell id="l99NdjzM9fjPco1lU6zZ-44" style="rounded=0;orthogonalLoop=1;jettySize=auto;html=1;exitX=1;exitY=0.3;exitDx=0;exitDy=0;exitPerimeter=0;entryX=0.333;entryY=0.657;entryDx=0;entryDy=0;entryPerimeter=0;endArrow=none;endFill=0;" edge="1" parent="1" source="l99NdjzM9fjPco1lU6zZ-40" target="l99NdjzM9fjPco1lU6zZ-39">
          <mxGeometry relative="1" as="geometry" />
        </mxCell>
        <mxCell id="l99NdjzM9fjPco1lU6zZ-45" value="1" style="text;html=1;align=center;verticalAlign=middle;resizable=0;points=[];autosize=1;strokeColor=none;fillColor=none;" vertex="1" parent="1">
          <mxGeometry x="570" y="160" width="30" height="30" as="geometry" />
        </mxCell>
        <mxCell id="l99NdjzM9fjPco1lU6zZ-50" value="" style="edgeStyle=none;orthogonalLoop=1;jettySize=auto;html=1;rounded=0;endArrow=none;endFill=0;" edge="1" parent="1">
          <mxGeometry width="100" relative="1" as="geometry">
            <mxPoint x="30" y="310" as="sourcePoint" />
            <mxPoint x="690" y="310" as="targetPoint" />
            <Array as="points" />
          </mxGeometry>
        </mxCell>
        <mxCell id="l99NdjzM9fjPco1lU6zZ-52" value="" style="edgeStyle=none;orthogonalLoop=1;jettySize=auto;html=1;rounded=0;exitX=0;exitY=0.7;exitDx=0;exitDy=0;exitPerimeter=0;endArrow=oval;endFill=1;" edge="1" parent="1" source="l99NdjzM9fjPco1lU6zZ-8">
          <mxGeometry width="100" relative="1" as="geometry">
            <mxPoint x="120" y="360" as="sourcePoint" />
            <mxPoint x="190" y="310" as="targetPoint" />
            <Array as="points" />
          </mxGeometry>
        </mxCell>
        <mxCell id="l99NdjzM9fjPco1lU6zZ-53" value="" style="edgeStyle=none;orthogonalLoop=1;jettySize=auto;html=1;rounded=0;exitX=0;exitY=0.7;exitDx=0;exitDy=0;exitPerimeter=0;endArrow=oval;endFill=1;" edge="1" parent="1" source="l99NdjzM9fjPco1lU6zZ-9">
          <mxGeometry width="100" relative="1" as="geometry">
            <mxPoint x="280" y="330" as="sourcePoint" />
            <mxPoint x="330" y="310" as="targetPoint" />
            <Array as="points" />
          </mxGeometry>
        </mxCell>
        <mxCell id="l99NdjzM9fjPco1lU6zZ-54" value="" style="edgeStyle=none;orthogonalLoop=1;jettySize=auto;html=1;rounded=0;exitX=0;exitY=0.7;exitDx=0;exitDy=0;exitPerimeter=0;endArrow=oval;endFill=1;" edge="1" parent="1" source="l99NdjzM9fjPco1lU6zZ-10">
          <mxGeometry width="100" relative="1" as="geometry">
            <mxPoint x="420" y="350" as="sourcePoint" />
            <mxPoint x="460" y="310" as="targetPoint" />
            <Array as="points" />
          </mxGeometry>
        </mxCell>
        <mxCell id="l99NdjzM9fjPco1lU6zZ-55" value="" style="edgeStyle=none;orthogonalLoop=1;jettySize=auto;html=1;rounded=0;exitX=0;exitY=0.7;exitDx=0;exitDy=0;exitPerimeter=0;endArrow=oval;endFill=1;" edge="1" parent="1" source="l99NdjzM9fjPco1lU6zZ-40">
          <mxGeometry width="100" relative="1" as="geometry">
            <mxPoint x="530" y="340" as="sourcePoint" />
            <mxPoint x="580" y="310" as="targetPoint" />
            <Array as="points" />
          </mxGeometry>
        </mxCell>
        <mxCell id="l99NdjzM9fjPco1lU6zZ-56" value="clk" style="text;html=1;align=center;verticalAlign=middle;resizable=0;points=[];autosize=1;strokeColor=none;fillColor=none;" vertex="1" parent="1">
          <mxGeometry x="20" y="200" width="40" height="30" as="geometry" />
        </mxCell>
        <mxCell id="l99NdjzM9fjPco1lU6zZ-57" value="&lt;font style=&quot;font-size: 18px;&quot;&gt;A&lt;/font&gt;" style="text;html=1;align=center;verticalAlign=middle;resizable=0;points=[];autosize=1;strokeColor=none;fillColor=none;" vertex="1" parent="1">
          <mxGeometry x="80" y="180" width="40" height="40" as="geometry" />
        </mxCell>
        <mxCell id="l99NdjzM9fjPco1lU6zZ-58" value="&lt;font style=&quot;font-size: 18px;&quot;&gt;B&lt;/font&gt;" style="text;html=1;align=center;verticalAlign=middle;resizable=0;points=[];autosize=1;strokeColor=none;fillColor=none;" vertex="1" parent="1">
          <mxGeometry x="220" y="180" width="40" height="40" as="geometry" />
        </mxCell>
        <mxCell id="l99NdjzM9fjPco1lU6zZ-59" value="&lt;font style=&quot;font-size: 18px;&quot;&gt;C&lt;/font&gt;" style="text;html=1;align=center;verticalAlign=middle;resizable=0;points=[];autosize=1;strokeColor=none;fillColor=none;" vertex="1" parent="1">
          <mxGeometry x="360" y="180" width="40" height="40" as="geometry" />
        </mxCell>
        <mxCell id="l99NdjzM9fjPco1lU6zZ-60" value="&lt;font style=&quot;font-size: 18px;&quot;&gt;D&lt;/font&gt;" style="text;html=1;align=center;verticalAlign=middle;resizable=0;points=[];autosize=1;strokeColor=none;fillColor=none;" vertex="1" parent="1">
          <mxGeometry x="490" y="180" width="40" height="40" as="geometry" />
        </mxCell>
        <mxCell id="l99NdjzM9fjPco1lU6zZ-61" value="&lt;font style=&quot;font-size: 18px;&quot;&gt;E&lt;/font&gt;" style="text;html=1;align=center;verticalAlign=middle;resizable=0;points=[];autosize=1;strokeColor=none;fillColor=none;" vertex="1" parent="1">
          <mxGeometry x="610" y="180" width="40" height="40" as="geometry" />
        </mxCell>
        <mxCell id="l99NdjzM9fjPco1lU6zZ-62" value="&lt;font style=&quot;font-size: 18px;&quot;&gt;F&lt;/font&gt;" style="text;html=1;align=center;verticalAlign=middle;resizable=0;points=[];autosize=1;strokeColor=none;fillColor=none;" vertex="1" parent="1">
          <mxGeometry x="745" y="180" width="30" height="40" as="geometry" />
        </mxCell>
      </root>
    </mxGraphModel>
  </diagram>
</mxfile>
